<svg xmlns="http://www.w3.org/2000/svg" width="2500" height="791" viewBox="0 0 228.6 72.319"><path fill="#04041c" d="M31.86 46.49c1.248 0 1.784 1.249 1.784 3.21v13.555c0 7.133-3.568 7.311-4.994 6.598-1.784-.891-2.14-3.923-2.14-6.777V49.7c0-1.961.713-3.21 1.961-3.21v-.713H21.16v.713c1.249 0 1.784 1.249 1.784 3.21v14.803c0 2.675 1.605 6.956 5.35 7.312 3.745.179 6.242-2.14 6.242-8.739V49.7c0-1.961.713-3.21 1.784-3.21v-.713h-4.46zm13.02-.713h-6.956v.713c1.248 0 1.961 1.249 1.961 3.21v17.478c0 1.962-.713 3.21-1.961 3.21v.714h7.49c1.605 0 3.21-.892 4.815-2.854 2.497-3.388 3.21-10.7 1.962-15.16-1.248-5.706-4.101-7.311-7.312-7.311zm3.566 19.261c-.356 1.784-.892 4.994-4.102 4.994-.892 0-.892-.357-.892-2.318V49.165c0-1.962 0-2.14.892-2.14 1.249 0 2.14-.179 3.21 1.962 1.784 3.388 1.784 11.592.892 16.051m53.682-32.281h-2.675l3.567-8.916h6.955v8.916h-3.21v1.428h19.44v-1.428h-3.21V19.738h4.814c1.784 0 3.212-1.605 3.212-3.032V4.222c0-1.07-1.249-2.853-3.39-2.853h-20.866v1.426h2.497L97.669 32.757h-2.497v1.428h6.956zm20.866-29.962h2.319c.534 0 .892.357.892.892V17.42c0 .534-.358.892-.892.892h-2.319V9.751Zm-8.382 0h3.745v29.962h-3.745zm-4.637 2.854v16.586h-6.599zM59.86 70.032c-1.07-.179-1.248-.714-1.248-2.497v-8.56c2.497.177 3.032.89 3.745 5.528h.356V52.197h-.356c-.713 4.637-1.248 5.172-3.745 5.529v-8.56c0-1.963.178-2.32.892-2.14h1.96c3.568.177 3.746 5.171 3.925 6.42h.535v-7.669H53.26v.713c1.07 0 1.784 1.249 1.784 3.21v17.478c0 1.962-.714 3.21-1.784 3.21v.714h12.841l.892-7.669h-.535c-1.605 5.35-3.389 6.955-6.599 6.599M19.376 40.604l-7.49-.178v1.428h2.318L3.324 70.032H.828v1.427h6.599v-1.427H4.75l3.389-8.383h6.599v8.383h-3.032v1.427H22.23v-1.427h-2.853ZM14.739 60.58H8.675l6.064-15.694ZM153.67 40.426H141.9v1.428h2.852v28.178h-3.21v1.427h10.879v-1.427h-3.03V57.726h4.636c1.605 0 2.854-1.606 2.854-2.675V43.1c0-.891-1.072-2.675-3.21-2.675zm-1.25 15.16c0 .534-.355.891-.891.891h-2.139V41.854h2.139c.536 0 .892.356.892.712v13.02m23.363 4.814c1.249 0 1.784 1.25 1.784 3.211v4.815c0 .536 0 1.427-.892 1.962-.534.357-1.248.357-1.784.357-.356 0-.892 0-1.248-.535-1.07-.713-1.604-2.14-2.14-4.637-.356-1.605-.534-4.28-.534-6.956 0-2.853.178-5.528.534-7.133.536-2.497 1.07-3.924 2.14-4.638.356-.356.892-.534 1.248-.534 1.428 0 4.638 2.496 5.708 8.025h.535V45.42h-.535c-.357.713-.357 1.962-1.605 1.605-.714-.357-2.14-1.427-4.103-1.605-1.426 0-3.03.713-4.457 2.319-2.141 2.14-3.211 6.42-3.211 10.878 0 4.28 1.07 8.561 3.211 10.88 1.427 1.426 3.031 2.318 4.457 2.318.714 0 1.428 0 2.14-.178.536-.178 3.568-.892 4.103-1.784v-6.242c0-1.962.713-3.21 1.962-3.21v-.713h-7.313zm18.013-13.911c1.249 0 1.784 1.249 1.784 3.21v13.555c0 7.133-3.566 7.311-4.994 6.598-1.784-.891-2.14-3.923-2.14-6.777V49.7c0-1.961.714-3.21 1.962-3.21v-.713h-7.312v.713c1.25 0 1.784 1.249 1.784 3.21v14.803c0 2.675 1.604 6.956 5.35 7.312 3.745.179 6.241-2.14 6.241-8.739V49.7c0-1.961.714-3.21 1.784-3.21v-.713h-4.459zm13.019 23.542c-1.248-.179-1.248-.714-1.248-2.497v-8.56c2.498.177 2.854.89 3.568 5.528h.534V52.197h-.534c-.714 4.637-1.07 5.172-3.568 5.529v-8.56c0-1.963.178-2.32.892-2.14h1.962c3.567.177 3.745 5.171 3.924 6.42h.356v-7.669H200.04v.713c1.248 0 1.962 1.249 1.962 3.21v17.478c0 1.962-.714 3.21-1.962 3.21v.714h12.84l1.07-7.669h-.713c-1.605 5.35-3.21 6.955-6.42 6.599m7.49-24.255v7.49h.536c.178-.892.178-2.675 1.248-4.637 1.248-2.14 2.676-1.605 3.21-1.605v20.153c0 1.962-.714 3.21-1.784 3.21v.714h7.134v-.714c-1.07 0-1.782-1.248-1.782-3.21V47.025c.534 0 1.96-.535 3.209 1.605 1.07 1.962 1.07 3.745 1.25 4.637h.355v-7.49zM78.765 63.076l-4.637-17.299h-6.242v.713c1.605 0 2.14.535 2.14 3.21v17.478c0 1.962-.535 3.21-1.962 3.21v.714h4.994v-.714c-1.249 0-1.962-1.248-1.962-3.21V48.987l6.064 22.115h.535l6.241-22.115v18.191c0 1.962-.712 3.21-1.96 3.21v.714h7.846v-.714c-1.248 0-1.962-1.248-1.962-3.21V49.7c0-1.961.714-3.21 1.962-3.21v-.713h-6.064zm42.624 5.885-4.28-10.345c1.248-.535 2.319-1.426 3.032-3.388.891-2.318.357-5.35-.535-6.955-1.249-1.962-3.388-2.497-5.172-2.497h-6.956v.713c1.07 0 1.784 1.249 1.784 3.21v17.478c0 1.962-.713 3.21-1.784 3.21h.178v.714h6.956v-.714c-1.07 0-1.783-1.248-1.783-3.21V59.33h.535L118 71.1h4.458v-.713c-.356 0-.535.178-1.07-1.426zm-4.636-13.733c-.714 3.388-2.854 2.853-3.924 2.853V48.63c0-1.07.535-1.605.892-1.605 1.783-.357 2.497.892 2.853 2.318.357.892.535 4.103.179 5.886m-12.128 13.376-5.707-22.828h-.535l-5.529 22.115c-.535 2.14-1.07 2.496-1.605 2.496v.714h4.458v-.714c-1.604 0-2.14-1.248-1.604-3.21l.713-3.388h5.172l1.07 4.28c.357 1.962-1.07 2.318-1.962 2.318v.714h6.956v-.714c-.357 0-1.07-.178-1.427-1.783m-9.453-6.242 2.14-9.274 2.32 9.274zm63.491-15.873c1.426 0 2.14 1.249 2.14 3.21v17.478c0 1.962-.714 3.21-2.14 3.21v.714h7.669v-.714c-1.427 0-1.96-1.248-1.96-3.21V49.7c0-1.961.533-3.21 1.96-3.21v-.713h-7.669zm-28.178 9.274c-2.854-1.427-3.746-3.389-3.746-4.994 0-.891.358-4.102 2.498-4.102 3.21 0 4.28 4.994 4.814 6.956h.536V45.42h-.536c-.356.713-.356 1.248-.89 1.248-1.25 0-2.32-1.248-4.816-1.248-2.14 0-4.637 1.962-4.637 6.955 0 2.32.713 5.53 3.567 7.49 3.924 2.855 5.35 3.925 5.35 6.065 0 .892-.356 4.636-3.566 4.636-2.32 0-3.924-3.744-4.102-5.171l-.536-2.675h-.535v9.095h.535c0-.713.178-1.249.357-1.249 1.249 0 3.389 1.249 4.815 1.249 5.35 0 6.242-4.815 6.242-7.312 0-3.567-1.604-6.777-5.35-8.739"/></svg>